<?xml version="1.0" standalone="no"?>
<!DOCTYPE svg PUBLIC "-//W3C//DTD SVG 20010904//EN"
 "http://www.w3.org/TR/2001/REC-SVG-20010904/DTD/svg10.dtd">
<svg version="1.0" xmlns="http://www.w3.org/2000/svg"
 width="260.000000pt" height="260.000000pt" viewBox="0 0 260.000000 260.000000"
 preserveAspectRatio="xMidYMid meet">
<metadata>
Created by potrace 1.14, written by Peter Selinger 2001-2017
</metadata>
<g transform="translate(0.000000,260.000000) scale(0.100000,-0.100000)"
fill="#000000" stroke="none">
<path d="M1286 1809 c-22 -5 -66 -23 -98 -39 -55 -28 -60 -29 -83 -14 -29 19
-115 46 -115 36 0 -4 14 -15 30 -24 17 -9 35 -29 40 -43 6 -15 10 -159 10
-347 l0 -320 -30 -28 -29 -28 58 -16 c33 -9 84 -30 113 -45 l55 -29 117 69
c64 38 121 67 125 64 5 -2 12 -20 15 -38 3 -18 19 -48 34 -67 l29 -34 34 21
c19 11 64 37 102 57 37 21 65 41 62 47 -4 5 -19 2 -37 -7 -30 -16 -33 -16 -49
5 -10 12 -23 46 -30 75 -18 83 -57 146 -111 183 l-48 31 100 65 100 64 -87 71
-87 71 -30 -22 c-17 -12 -69 -49 -116 -82 -47 -34 -91 -65 -98 -69 -11 -7 -13
21 -10 147 3 150 4 156 28 182 14 15 37 33 53 41 15 8 27 19 27 24 0 12 -21
11 -74 -1z m232 -434 c-17 -15 -255 -165 -263 -165 -3 0 -5 37 -5 83 l0 83 77
56 77 55 63 -50 c50 -40 61 -53 51 -62z m-125 -164 c32 -21 52 -47 72 -94 l14
-34 -65 -38 -65 -38 -50 23 -49 23 0 61 c0 61 0 61 43 88 50 33 63 34 100 9z"/>
<path d="M2446 1664 c-21 -20 -20 -23 10 -55 74 -78 -71 -103 -263 -46 l-82
24 -46 -33 c-26 -18 -80 -43 -121 -56 l-74 -23 0 -116 0 -117 88 -37 c48 -20
90 -40 95 -44 7 -7 -124 -139 -198 -199 -31 -25 -37 -34 -27 -44 10 -10 23 -7
65 17 47 27 61 30 137 30 68 0 97 -5 147 -26 l61 -26 49 33 c49 33 156 74 193
74 19 0 20 6 20 135 l0 134 -87 27 c-49 14 -91 29 -95 33 -5 4 44 59 107 122
98 98 115 120 115 146 0 52 -60 82 -94 47z m-189 -218 l93 -1 -91 -91 -91 -92
-57 22 -56 22 -3 91 -3 92 58 -21 c43 -16 82 -22 150 -22z m18 -222 l55 -15 0
-96 c0 -94 0 -95 -22 -89 -105 30 -159 38 -220 32 -36 -3 -75 -9 -85 -12 -10
-4 29 41 87 100 59 60 111 104 118 101 7 -2 37 -12 67 -21z"/>
<path d="M149 1538 c-99 -59 -93 -54 -85 -66 4 -7 17 -6 37 1 28 11 33 10 50
-12 17 -21 19 -41 19 -215 l0 -191 -31 -26 -32 -26 76 -46 75 -45 74 45 c40
25 74 47 76 48 2 2 -11 11 -28 21 l-30 19 2 184 3 185 68 39 67 39 50 -32 50
-32 0 -203 c0 -112 4 -215 10 -229 5 -14 28 -39 51 -56 l42 -30 56 31 c103 59
134 80 124 90 -5 5 -22 4 -42 -4 -30 -11 -34 -10 -52 12 -17 21 -19 41 -19
207 0 139 4 193 14 219 8 19 19 35 23 35 4 1 19 10 32 21 17 14 21 23 14 30
-8 8 -24 1 -53 -20 -47 -34 -48 -34 -140 28 l-44 30 -56 -31 c-30 -18 -86 -51
-125 -74 l-70 -43 -8 39 c-6 28 -18 47 -40 64 -67 49 -66 49 -158 -6z"/>
</g>
</svg>
